# xmcd
#
# Track frame offsets:
#       150
#       16585
#       31665
#       48614
#       63188
#       79749
#       95943
#       120309
#       135673
#       150770
#       165254
#       182144
#       200254
#       216640
#
# Disc length: 3162 seconds
#
# Revision: 0
# Processed by: cddbd v1.4PL0 Copyright (c) Steve Scherf et al.
# Submitted via: WhereIsIt 3.26
#
DISCID=ab0c580e
DTITLE=Alabama - Greatest Hits (1992)
DYEAR=1900
DGENRE=
TTITLE0=Feels So Right
TTITLE1=Love In The First Degree
TTITLE2=Take Me Down
TTITLE3=Old Flame
TTITLE4=Mountain Music
TTITLE5=Close Enough To Perfect
TTITLE6=Dixieland Delight
TTITLE7=If You'er Gonna Play In Texas
TTITLE8=40 Hour Week (For A Livin')
TTITLE9=Song Of The South
TTITLE10=Touch Me WHen We're Dancing
TTITLE11=Lady Down On Love
TTITLE12=When We Make Love
TTITLE13=The Closer You Get
EXTD=
EXTT0=
EXTT1=
EXTT2=
EXTT3=
EXTT4=
EXTT5=
EXTT6=
EXTT7=
EXTT8=
EXTT9=
EXTT10=
EXTT11=
EXTT12=
EXTT13=
PLAYORDER=
